<svg xmlns="http://www.w3.org/2000/svg" width="212.07555" height="173.03954" version="1.0"><path d="M56.6724133 53.87464192a3.63581665 3.41064179 0 11-7.27163316 0 3.63581665 3.41064179 0 117.27163317 0zm46.65966721-23.30605169a3.63581665 3.41064179 0 11-7.27163316 0 3.63581665 3.41064179 0 117.27163316 0zM86.97089685 67.51720906a3.63581665 3.41064179 0 11-7.27163316 0 3.63581665 3.41064179 0 117.27163316 0zm18.78506744 65.37063314a3.63581665 3.41064179 0 11-7.27163316 0 3.63581665 3.41064179 0 117.27163316 0zm45.44770411-50.02274486a3.63581665 3.41064179 0 11-7.27163316 0 3.63581665 3.41064179 0 117.27163316 0z" fill="hsl(0, 100%, 65%)" overflow="visible"/><path d="M127.57085463 57.2852842a3.63581665 3.41064179 0 11-7.27163317 0 3.63581665 3.41064179 0 117.27163317 0zm-10.52149567 41.87218627a3.63581665 3.41064179 0 11-7.27163316 0 3.63581665 3.41064179 0 117.27163316 0zM59.97822802 85.39946619a3.63581665 3.41064179 0 11-7.27163317 0 3.63581665 3.41064179 0 117.27163317 0zm3.18831723 32.00231211a3.63581665 3.41064179 0 11-7.27163316 0 3.63581665 3.41064179 0 117.27163316 0z" fill="hsl(240, 100%, 65%)" overflow="visible"/><path d="M420 329.50504c310.94835 6.42563 450.3586 176.33851 277.14286 482.85714C538.03389 1093.9178 216.52481 1072.4887 71.428572 1060.9336c-72.7901887-5.7968-181.194322 5.429-194.285712-117.14284-11.3476-106.24508 83.292515-192.60219 45.714283-265.71429C-187.8469 462.69099-230.45348 316.06366 420 329.50504z" fill="none" stroke="#ccc" stroke-width="12" transform="matrix(.21209 0 0 .19895 39.18751 -52.69218)"/><path d="M81.24770685 153.70586723l13.82924463 5.26631503-12.47940865 7.68006596-1.34983598-12.94638099zM90.59344518 6.38732555l-12.82910996 7.15512158 13.5675646 5.83457768-.73845464-12.98969926z" style="marker:none" overflow="visible" fill="#ccc"/></svg>